<?xml version="1.0" encoding="UTF-8"?> <!-- Generator: Adobe Illustrator 24.1.1, SVG Export Plug-In . SVG Version: 6.00 Build 0) --> <svg xmlns="http://www.w3.org/2000/svg" xmlns:xlink="http://www.w3.org/1999/xlink" version="1.1" id="Logo" x="0px" y="0px" width="700px" height="200px" viewBox="0 0 700 200" style="enable-background:new 0 0 700 200;" xml:space="preserve"> <style type="text/css"> .st0{fill:#468189;} </style> <g> <path d="M249,8L276,75.3L302.9,8H317v82.4h-10.9V58.3l1-34.6l-27.1,66.7h-8.3l-27-66.6l1.1,34.5v32.1H235V8H249z"></path> <path d="M382.8,52.3h-35.7v29.2h41.5v8.9h-52.4V8H388v8.9h-40.9v26.5h35.7V52.3z"></path> <path d="M465.5,90.4h-10.9L413,26.9v63.5h-10.9V8H413l41.6,63.8V8h10.8V90.4z"></path> <path d="M540.1,16.9h-26.5v73.5h-10.8V16.9h-26.4V8h63.7V16.9z"></path> <path d="M593.4,68.9h-34.5l-7.8,21.6h-11.2L571.4,8h9.5l31.5,82.4h-11.2L593.4,68.9z M562.2,60h28l-14-38.6L562.2,60z"></path> <path d="M634.5,81.5h39.1v8.9h-50V8h10.9V81.5z"></path> </g> <g> <path d="M257.4,108.4l21.3,59.8l21.2-59.8h22.5v82.4h-17.2v-22.5l1.7-38.9l-22.4,61.4h-11.8l-22.4-61.4l1.7,38.8v22.5H235v-82.4 H257.4z"></path> <path d="M387.3,155.1h-32.9v22.1H393v13.6h-55.7v-82.4h55.6v13.8h-38.4v19.6h32.9V155.1z"></path> <path d="M470.6,190.9h-17.1l-33.3-54.2v54.2H403v-82.4h17.1l33.4,54.3v-54.3h17.1V190.9z"></path> <path d="M546.4,122.2H521v68.7h-17.1v-68.7h-25.1v-13.8h67.7V122.2z"></path> <path d="M622.9,151.5c0,8.1-1.4,15.2-4.3,21.3c-2.9,6.1-7,10.8-12.4,14.2c-5.4,3.3-11.6,5-18.5,5c-6.9,0-13-1.6-18.4-4.9 c-5.4-3.3-9.6-8-12.5-14.1c-3-6.1-4.5-13.1-4.5-21v-4.1c0-8.1,1.5-15.3,4.4-21.4c2.9-6.2,7.1-10.9,12.5-14.2c5.4-3.3,11.5-5,18.5-5 c6.9,0,13.1,1.7,18.5,5c5.4,3.3,9.5,8,12.5,14.2c2.9,6.2,4.4,13.3,4.4,21.4V151.5z M605.5,147.8c0-8.6-1.6-15.2-4.7-19.7 c-3.1-4.5-7.6-6.7-13.3-6.7c-5.7,0-10.2,2.2-13.3,6.7c-3.1,4.4-4.7,10.9-4.7,19.5v4c0,8.4,1.6,14.9,4.7,19.6c3.1,4.6,7.6,7,13.5,7 c5.7,0,10.2-2.2,13.2-6.7c3.1-4.5,4.6-11,4.7-19.6V147.8z"></path> <path d="M666.1,160.7h-13.6v30.2h-17.1v-82.4h30.9c9.8,0,17.4,2.2,22.7,6.5c5.3,4.3,8,10.5,8,18.4c0,5.6-1.2,10.3-3.7,14.1 c-2.5,3.8-6.2,6.7-11.2,9l18,33.7v0.8h-18.4L666.1,160.7z M652.4,146.9h13.8c4.3,0,7.6-1.1,10-3.3c2.4-2.2,3.5-5.2,3.5-9 c0-3.9-1.1-6.9-3.3-9.2c-2.2-2.2-5.6-3.3-10.2-3.3h-13.7V146.9z"></path> </g> <g> <path class="st0" d="M0,99.9C-0.1,44.8,45-0.1,100.2,0c55,0.1,99.9,45,99.8,100.1c-0.1,55.1-45.1,100-100.3,99.9 C44.8,199.9-0.2,155,0,99.9z M108.1,138.5c0,5.8-0.8,10.1-2.5,14.1c-1.2,2.9-2.6,5.7-4.7,8c-0.6,0.6-0.9,0.7-1.5-0.1 c-1.3-1.6-2.5-3.3-3.5-5.2c-4.5-8.5-5.3-17.1-1.2-26c0.3-0.6,0.6-1.2,1.4-1.5c2.5-1,3.6-3.8,2.4-6.2c-1.1-2.3-4-3.3-6.2-2.1 c-2.5,1.4-3.2,4.2-1.7,6.6c0.3,0.5,0.4,0.8,0.2,1.3c-2.7,5.7-3.5,11.8-2.6,18c1.1,7.5,4.4,14,9.5,19.5c1.2,1.3,2.3,1.4,3.9,0.4 c1.5-0.9,2.8-2,3.7-3.5c3.1-4.8,5.4-9.9,6.8-15.4c1.3-5,0.5-10-0.7-14.9c-1.8-7.7-5.5-14.2-12-19c-3.6-2.7-7.6-4.4-12-5.3 c-0.8-0.2-1-0.4-0.9-1.3c0.2-1.4,0.2-2.7,0.2-4.1c0.1-1.6,0-1.6,1.6-1.2c7.3,1.5,14.5,3,21.8,4.4c1.9,0.4,1.8,0.4,2,2.2 c1,8.6,4,16.4,9.8,22.9c6.6,7.3,15,11.4,24.6,13.3c1.4,0.3,2.6-0.7,2.7-2.1c0.1-1.9,0.1-3.7,0-5.6c-0.8-12.1-6.2-21.4-16.7-27.5 c-4.8-2.8-9.9-4.6-15.3-5.9c-0.8-0.2-1.1-0.5-1-1.3c0.1-1.1,0.1-2.2,0.2-3.2c0.2-2.1,0.2-2,2.3-1.9c8.3,0.7,15.6-1.5,22-6.9 c5.8-4.9,9.3-11.3,11.7-18.4c0.8-2.4,1.4-4.8,2-7.2c0.5-2.2,0-2.9-2.2-3.2c-8.7-1-16.7,0.9-23.8,6.2c-7.6,5.6-12.1,13.4-14.6,22.3 c-0.3,1.1-0.7,1.2-1.6,0.8c-5.6-2.3-10.6-5.5-14.1-10.5c-6.5-9.1-7.8-19.2-4.9-29.9c1.1-4,2.9-7.5,6.1-10.2c0.6-0.5,1-0.5,1.5,0.1 c1.8,1.9,3,4.1,3.9,6.6c1,3,1.6,6,2.2,9.1c0.9,4.7,0.9,9.4-0.5,14.1c-0.2,0.6-0.3,1-1.2,1.1c-2.5,0.1-4.3,2.5-4,5 c0.3,2.6,2.7,4.4,5.2,3.9c2.5-0.4,4.4-2.9,3.7-5.3c-0.3-1.2-0.2-2.2,0.3-3.2c0.2-0.4,0.3-0.8,0.4-1.2c1.3-4.7,1.3-9.5,0.5-14.3 c-0.8-5-1.9-9.9-4.3-14.4c-1.3-2.5-2.9-4.7-5.3-6.2c-1.1-0.7-2.2-0.8-3.3,0c-2,1.4-3.8,3-5.1,5c-5.1,7.6-6.6,16.2-5.4,25 C89.9,78.9,97.8,89,111.8,94c0.6,0.2,0.8,0.5,0.7,1.2c-0.3,1.7-0.5,3.4-0.5,5.1c0,0.8-0.2,0.9-1,0.8c-7.3-1.5-14.6-2.9-21.9-4.3 c-2.5-0.5-2.5-0.6-2.9-3.1c-1.6-9.6-5.5-18-12.8-24.6c-6.1-5.6-13.3-9-21.4-10.7c-2.4-0.5-3.5,0.4-3.5,2.9c0,0.8-0.1,1.7-0.1,2.5 c-0.1,6.7,1.3,13.1,5,18.7c3,4.6,7.1,8,11.8,10.7c5,2.9,10.5,4.8,16.1,6.2c0.5,0.1,1.2,0.1,1.1,1c0,1.8,0,3.7-0.2,5.5 c-0.1,0.8-0.3,1-1.1,0.9c-8-0.4-15.2,2-21.4,7c-6.1,5-9.8,11.5-12.3,18.9c-0.9,2.6-1.7,5.2-2,8c-0.1,1.4,0.4,2,1.8,2.2 c11.9,1.3,21.9-2.5,29.6-11.7c4.4-5.3,7.2-11.5,8.7-18.3c0.2-0.9,0.5-1.2,1.4-0.9c3.4,0.9,6.6,2.1,9.4,4.2 C104.6,121.8,107.6,130.3,108.1,138.5z"></path> <path class="st0" d="M146.6,64.5c3.2-0.1,3.2-0.1,2.4,2.7c-1.9,6.6-4.8,12.6-9.8,17.6c-5.8,5.8-12.9,7.9-21,7 c-0.5,0-0.8-0.1-0.6-0.7c2.5-10,9.9-22.3,23-25.7C142.7,64.8,144.8,64.5,146.6,64.5z"></path> <path class="st0" d="M78.6,110.9c3.1-0.1,3.1-0.1,2.2,2.9c-2.2,7.5-5.8,14.1-12,19.1c-5.2,4.1-11.1,6-17.7,5.8 c-0.4,0-1,0.3-0.8-0.6c2.2-8.3,5.8-15.7,12.5-21.3C67.5,112.9,72.7,111.1,78.6,110.9z"></path> <path class="st0" d="M82,94.9c-9.4-2.6-18.2-6.1-24.3-14.1c-3.9-5.1-5.1-11-5-17.3c0-0.8,0.5-0.6,0.9-0.5c5.9,1.7,11.3,4.3,16,8.3 c6.9,5.9,10.7,13.5,12.3,22.2C82,94,82,94.4,82,94.9z"></path> <path class="st0" d="M116.5,106.8c6.6,1.7,12.6,4.1,17.9,8.3c6.1,4.9,9.5,11.2,10.3,18.9c0.1,1.3,0.2,2.6,0.3,3.9 c0.1,0.8-0.1,1.1-0.9,0.8c-13.8-4-23.2-12.4-26.8-26.6c-0.4-1.4-0.6-2.9-0.8-4.4C116.5,107.4,116.5,107.1,116.5,106.8z"></path> </g> </svg> 